<?xml version="1.0" encoding="utf-8"?>
<!-- Generator: Adobe Illustrator 17.0.0, SVG Export Plug-In . SVG Version: 6.00 Build 0)  -->
<!DOCTYPE svg PUBLIC "-//W3C//DTD SVG 1.1//EN" "http://www.w3.org/Graphics/SVG/1.1/DTD/svg11.dtd">
<svg version="1.1" id="Capa_1" xmlns="http://www.w3.org/2000/svg" xmlns:xlink="http://www.w3.org/1999/xlink" x="0px" y="0px"
	 width="188px" height="189px" viewBox="0 0 188 189" enable-background="new 0 0 188 189" xml:space="preserve">
<g>
	<path fill="#A9C2CE" d="M93.306,109.247c-0.85,7.492-1.798,14.976-2.528,22.479c-1.224,12.588-2.299,25.188-3.459,37.781
		c-0.399,4.332-1.584,7.821-7.57,7.467c-5.933-0.351-6.616-3.777-6.522-8.233c0.536-25.291,1.181-50.582,1.334-75.876
		c0.068-11.213-0.528-22.469-1.697-33.626c-0.343-3.272-2.99-7.034-5.782-9.26c-10.68-8.515-21.853-16.491-32.829-24.684
		c-1.371-1.023-2.781-2.038-3.963-3.237c-2.561-2.599-7.576-5.183-3.206-8.992c1.597-1.392,4.439-2.05,9.652,0.931
		c11.567,6.613,23.096,13.21,34.815,19.541c15.155,8.187,30.644,8.185,45.804,0.03c11.515-6.194,22.726-12.88,34.074-19.344
		c3.342-1.903,7.024-5.382,10.553-1.325c3.961,4.552-0.924,7.261-4.036,9.653c-11.624,8.93-23.392,17.701-35.21,26.407
		c-4.412,3.25-6.911,7.039-6.899,12.505c0.079,34.143-0.019,68.286-0.057,102.428c-0.002,2.108-0.007,4.217,0.029,6.324
		c0.08,4.69-2.407,6.83-7.397,6.79c-4.904-0.04-6.259-2.651-6.645-6.746c-1.823-19.342-3.846-38.669-5.813-57.999
		c-0.093-0.91-0.339-1.806-0.513-2.709C94.73,109.451,94.018,109.349,93.306,109.247z"/>
	<path fill="#A9C2CE" d="M80.767,20.452c-0.08-8.205,5.132-13.011,13.983-12.894c8.142,0.107,13.393,4.767,13.559,12.032
		c0.234,10.243-5.559,17.723-13.752,17.759C86.229,37.384,80.868,30.817,80.767,20.452z"/>
	<path fill="#A9C2CE" d="M146.842,81.363c-4.045,2.987-6.632,4.897-9.219,6.807c-0.728-0.706-1.456-1.413-2.184-2.119
		c4.177-4.696,8.353-9.393,13.328-14.987c5.448,4.901,10.204,9.18,14.96,13.458c-0.623,0.787-1.246,1.574-1.869,2.36
		c-2.747-1.566-5.494-3.132-9.98-5.688c0.609,16.207,1.181,31.449,1.754,46.691c-1.235,0.093-2.471,0.186-3.706,0.279
		C148.935,113.125,147.944,98.085,146.842,81.363z"/>
	<path fill="#A9C2CE" d="M40.951,81.363c4.045,2.987,6.632,4.897,9.219,6.807c0.728-0.706,1.456-1.413,2.184-2.119
		c-4.177-4.696-8.353-9.393-13.328-14.987c-5.448,4.901-10.204,9.18-14.96,13.458c0.623,0.787,1.246,1.574,1.869,2.36
		c2.747-1.566,5.494-3.132,9.98-5.688c-0.609,16.207-1.181,31.449-1.754,46.691c1.235,0.093,2.471,0.186,3.706,0.279
		C38.857,113.125,39.849,98.085,40.951,81.363z"/>
</g>
</svg>
