<?xml version="1.0" encoding="utf-8"?>
<!-- Generator: Adobe Illustrator 17.0.0, SVG Export Plug-In . SVG Version: 6.00 Build 0)  -->
<!DOCTYPE svg PUBLIC "-//W3C//DTD SVG 1.1//EN" "http://www.w3.org/Graphics/SVG/1.1/DTD/svg11.dtd">
<svg version="1.1" id="Capa_1" xmlns="http://www.w3.org/2000/svg" xmlns:xlink="http://www.w3.org/1999/xlink" x="0px" y="0px"
	 width="188px" height="189px" viewBox="0 0 188 189" enable-background="new 0 0 188 189" xml:space="preserve">
<g>
	<path fill="#A9C2CE" d="M92.423,9.911c39.774,0.144,62.385,20.489,67.168,59.921c0.432,3.561,2.759,7.539,5.404,10.071
		c11.573,11.079,10.147,27.51-2.969,36.471c-4.873,3.33-8.87,8.161-12.676,12.792c-10.417,12.675-19.084,27.195-31.095,38.053
		c-16.692,15.09-36.651,14.532-53.813-0.119c-9.152-7.813-15.953-18.381-23.808-27.711c-7.2-8.553-13.874-17.625-21.712-25.546
		C8.472,103.28,8.92,89.66,20.508,79.396c2.648-2.345,4.833-6.436,5.207-9.939C29.989,29.385,51.786,9.763,92.423,9.911z
		 M74.367,144.891c12.088,0,21.496,0,31.946,0"/>
	<path fill="#FFFFFF" d="M70.032,134.538c17.89-13.837,28.172-1.621,42.072,12.045C99.299,146.583,84.846,134.538,70.032,134.538z"
		/>
</g>
</svg>
