<?xml version="1.0" encoding="utf-8"?>
<!-- Generator: Adobe Illustrator 17.0.0, SVG Export Plug-In . SVG Version: 6.00 Build 0)  -->
<!DOCTYPE svg PUBLIC "-//W3C//DTD SVG 1.1//EN" "http://www.w3.org/Graphics/SVG/1.1/DTD/svg11.dtd">
<svg version="1.1" id="Capa_1" xmlns="http://www.w3.org/2000/svg" xmlns:xlink="http://www.w3.org/1999/xlink" x="0px" y="0px"
	 width="188px" height="189px" viewBox="0 0 188 189" enable-background="new 0 0 188 189" xml:space="preserve">
<g>
	<path fill="#A9C2CE" d="M14.431,173.186c2.609-9.8,5.186-18.191,6.942-26.75c0.645-3.146,0.253-7.156-1.201-9.981
		c-16.538-32.131-15.383-63.522,5.97-92.583C47.158,15.269,76.743,3.826,111.414,10.85c35.62,7.217,58.525,30.045,66.266,65.574
		c7.621,34.98-3.636,64.756-32.315,86.128c-28.949,21.574-60.501,22.919-92.414,6.01c-5.102-2.703-9.379-3.482-14.793-1.717
		C30.919,169.205,23.436,170.823,14.431,173.186z"/>
	<path opacity="0.6" fill="#FFFFFF" d="M70.055,104.655c3.603-6.025,1.845-13.471-4.061-17.199
		c-5.819-3.674-13.499-1.869-17.179,4.037c-3.879,6.225-2.04,14.061,4.145,17.66C58.925,112.624,66.477,110.638,70.055,104.655z"/>
	<path opacity="0.6" fill="#FFFFFF" d="M107.87,104.655c3.603-6.025,1.845-13.471-4.061-17.199
		c-5.819-3.674-13.499-1.869-17.179,4.037c-3.879,6.225-2.04,14.061,4.145,17.66C96.74,112.624,104.292,110.638,107.87,104.655z"/>
	<path opacity="0.6" fill="#FFFFFF" d="M146.269,104.655c3.603-6.025,1.845-13.471-4.061-17.199
		c-5.819-3.674-13.499-1.869-17.179,4.037c-3.879,6.225-2.04,14.061,4.145,17.66C135.139,112.624,142.691,110.638,146.269,104.655z"
		/>
</g>
</svg>
