<?xml version="1.0" encoding="utf-8"?>
<!-- Generator: Adobe Illustrator 17.0.0, SVG Export Plug-In . SVG Version: 6.00 Build 0)  -->
<!DOCTYPE svg PUBLIC "-//W3C//DTD SVG 1.1//EN" "http://www.w3.org/Graphics/SVG/1.1/DTD/svg11.dtd">
<svg version="1.1" id="Capa_1" xmlns="http://www.w3.org/2000/svg" xmlns:xlink="http://www.w3.org/1999/xlink" x="0px" y="0px"
	 width="188px" height="189px" viewBox="0 0 188 189" enable-background="new 0 0 188 189" xml:space="preserve">
<g>
	<g>
		<path fill="none" d="M138.824,90.36c-5.099,0.041-14.466,0.134-19.56-0.04c-2.832-0.097-4.36,0.966-5.188,3.655
			c-0.51,1.658-1.574,3.146-2.39,4.71c-0.277-0.069-0.553-0.138-0.83-0.206c-3.323-20.185-6.645-40.37-9.967-60.556
			c-0.217,0.023-0.433,0.047-0.65,0.071c-4.532,25.407-9.064,50.814-13.596,76.221c-0.315-0.021-0.629-0.043-0.944-0.064
			c-3.612-16.569-7.224-37.401-11.089-55.131c-0.987,2.201-1.579,3.352-2.031,4.555c-2.531,6.747-5.15,17.729-7.485,24.544
			c-1.081,3.156-2.699,4.735-6.213,4.424c-3.085-0.273-9.411-0.029-12.52-0.053c-2.132-0.017-4.012,0.057-3.969,3.04
			c0.044,3.065,2.103,2.869,4.128,2.873c4.353,0.009,11.924-0.252,16.251,0.084c3.686,0.286,5.487-1.238,6.468-4.563
			c0.841-2.848,1.976-5.609,2.981-8.409c0.386,0.067,0.772,0.134,1.157,0.202c4.368,20.193,8.736,40.386,13.104,60.579
			c0.196-0.008,0.393-0.016,0.589-0.025c4.218-23.977,8.437-47.955,12.655-71.932c0.397,0.034,0.795,0.067,1.192,0.101
			c2.438,14.862,4.875,41.446,7.312,56.308c1.071-0.49,1.379-0.985,1.62-1.511c2.797-6.097,5.686-23.877,8.323-30.042
			c1.066-2.492,2.675-3.234,5.211-3.133c3.725,0.147,11.724,0.014,15.455,0.046c2.004,0.017,3.343-0.469,3.341-2.896
			C142.181,90.766,140.828,90.344,138.824,90.36z"/>
		<path fill="#A9C2CE" d="M181.704,59.31c1.018-28.166-21.997-50.773-49.016-51.148c-14.188-0.196-26.466,5.002-36.359,15.312
			c-2.03,2.115-3.41,2.689-5.622,0.182c-5.562-6.302-12.691-10.126-20.591-12.901c-21.467-7.542-47.926,2.716-58.752,22.686
			c-7.953,14.67-8.107,29.657-2.892,45.06c4.791,14.148,12.44,26.8,21.076,38.829c17.54,24.434,38.674,45.582,60.877,65.728
			c2.252,2.044,3.83,1.957,5.949-0.136c12.276-12.126,25.056-23.772,36.88-36.32c16.489-17.499,31.153-36.464,41.238-58.531
			C178.747,78.76,182.191,69.174,181.704,59.31z M138.842,96.107c-3.731-0.032-11.73,0.101-15.455-0.046
			c-2.536-0.1-4.145,0.641-5.211,3.133c-2.637,6.165-5.526,23.945-8.323,30.042c-0.241,0.526-0.549,1.022-1.62,1.511
			c-2.438-14.862-4.875-41.446-7.312-56.308c-0.397-0.034-0.795-0.067-1.192-0.101c-4.218,23.978-8.437,47.955-12.655,71.932
			c-0.196,0.008-0.393,0.016-0.589,0.025c-4.368-20.193-8.736-40.386-13.104-60.579c-0.386-0.067-0.772-0.134-1.157-0.202
			c-1.005,2.799-2.141,5.56-2.981,8.409c-0.981,3.325-2.782,4.849-6.468,4.563c-4.327-0.336-11.897-0.075-16.251-0.084
			c-2.025-0.004-4.084,0.192-4.128-2.873c-0.042-2.982,1.837-3.056,3.969-3.04c3.109,0.024,9.435-0.219,12.52,0.053
			c3.514,0.31,5.132-1.268,6.213-4.424c2.335-6.815,4.953-17.797,7.485-24.544c0.452-1.204,1.044-2.354,2.031-4.555
			c3.865,17.73,7.477,38.562,11.089,55.131c0.315,0.021,0.629,0.043,0.944,0.064c4.532-25.407,9.064-50.814,13.596-76.221
			c0.217-0.023,0.433-0.047,0.65-0.071c3.323,20.185,6.645,40.37,9.967,60.556c0.277,0.069,0.553,0.138,0.83,0.206
			c0.815-1.564,1.879-3.052,2.39-4.71c0.828-2.689,2.355-3.752,5.188-3.655c5.094,0.174,14.461,0.081,19.56,0.04
			c2.004-0.016,3.356,0.407,3.359,2.851C142.185,95.638,140.845,96.124,138.842,96.107z"/>
	</g>
	<path fill="#A9C2CE" d="M138.824,90.36c-5.099,0.041-14.466,0.134-19.56-0.04c-2.832-0.097-4.36,0.966-5.188,3.655
		c-0.51,1.658-1.574,3.146-2.39,4.71c-0.277-0.069-0.553-0.138-0.83-0.206c-3.323-20.185-6.645-40.37-9.967-60.556
		c-0.217,0.023-0.433,0.047-0.65,0.071c-4.532,25.407-9.064,50.814-13.596,76.221c-0.315-0.021-0.629-0.043-0.944-0.064
		c-3.612-16.569-7.224-37.401-11.089-55.131c-0.987,2.201-1.579,3.352-2.031,4.555c-2.531,6.747-5.15,17.729-7.485,24.544
		c-1.081,3.156-2.699,4.735-6.213,4.424c-3.085-0.273-9.411-0.029-12.52-0.053c-2.132-0.017-4.012,0.057-3.969,3.04
		c0.044,3.065,2.103,2.869,4.128,2.873c4.353,0.009,11.924-0.252,16.251,0.084c3.686,0.286,5.487-1.238,6.468-4.563
		c0.841-2.848,1.976-5.609,2.981-8.409c0.386,0.067,0.772,0.134,1.157,0.202c4.368,20.193,8.736,40.386,13.104,60.579
		c0.196-0.008,0.393-0.016,0.589-0.025c4.218-23.977,8.437-47.955,12.655-71.932c0.397,0.034,0.795,0.067,1.192,0.101
		c2.438,14.862,4.875,41.446,7.312,56.308c1.071-0.49,1.379-0.985,1.62-1.511c2.797-6.097,5.686-23.877,8.323-30.042
		c1.066-2.492,2.675-3.234,5.211-3.133c3.725,0.147,11.724,0.014,15.455,0.046c2.004,0.017,3.343-0.469,3.341-2.896
		C142.181,90.766,140.828,90.344,138.824,90.36z"/>
	<path opacity="0.6" fill="#FFFFFF" d="M138.824,90.36c-5.099,0.041-14.466,0.134-19.56-0.04c-2.832-0.097-4.36,0.966-5.188,3.655
		c-0.51,1.658-1.574,3.146-2.39,4.71c-0.277-0.069-0.553-0.138-0.83-0.206c-3.323-20.185-6.645-40.37-9.967-60.556
		c-0.217,0.023-0.433,0.047-0.65,0.071c-4.532,25.407-9.064,50.814-13.596,76.221c-0.315-0.021-0.629-0.043-0.944-0.064
		c-3.612-16.569-7.224-37.401-11.089-55.131c-0.987,2.201-1.579,3.352-2.031,4.555c-2.531,6.747-5.15,17.729-7.485,24.544
		c-1.081,3.156-2.699,4.735-6.213,4.424c-3.085-0.273-9.411-0.029-12.52-0.053c-2.132-0.017-4.012,0.057-3.969,3.04
		c0.044,3.065,2.103,2.869,4.128,2.873c4.353,0.009,11.924-0.252,16.251,0.084c3.686,0.286,5.487-1.238,6.468-4.563
		c0.841-2.848,1.976-5.609,2.981-8.409c0.386,0.067,0.772,0.134,1.157,0.202c4.368,20.193,8.736,40.386,13.104,60.579
		c0.196-0.008,0.393-0.016,0.589-0.025c4.218-23.977,8.437-47.955,12.655-71.932c0.397,0.034,0.795,0.067,1.192,0.101
		c2.438,14.862,4.875,41.446,7.312,56.308c1.071-0.49,1.379-0.985,1.62-1.511c2.797-6.097,5.686-23.877,8.323-30.042
		c1.066-2.492,2.675-3.234,5.211-3.133c3.725,0.147,11.724,0.014,15.455,0.046c2.004,0.017,3.343-0.469,3.341-2.896
		C142.181,90.766,140.828,90.344,138.824,90.36z"/>
</g>
</svg>
