<?xml version="1.0" encoding="utf-8"?>
<!-- Generator: Adobe Illustrator 17.0.0, SVG Export Plug-In . SVG Version: 6.00 Build 0)  -->
<!DOCTYPE svg PUBLIC "-//W3C//DTD SVG 1.1//EN" "http://www.w3.org/Graphics/SVG/1.1/DTD/svg11.dtd">
<svg version="1.1" id="Capa_1" xmlns="http://www.w3.org/2000/svg" xmlns:xlink="http://www.w3.org/1999/xlink" x="0px" y="0px"
	 width="188px" height="189px" viewBox="0 0 188 189" enable-background="new 0 0 188 189" xml:space="preserve">
<g>
	<path fill="#A9C2CE" d="M93.617,178.459c-0.868,0.117-1.642,0.481-2.337,0.985c-8.983,6.516-18.006,6.255-27.247,0.437
		C44.05,167.3,29.574,150.235,21.682,127.877c-4.23-11.984-5.097-24.381-3.638-36.979c0.719-6.207,1.989-12.254,4.497-18.005
		c4.677-10.729,12.636-17.861,23.878-20.966c11.324-3.127,22.712-3.746,33.881,0.93c4.357,1.824,8.381,4.211,11.999,7.264
		c0.412,0.348,0.877,0.633,1.318,0.947C93.616,100.198,93.616,139.328,93.617,178.459z"/>
	<path fill="#A9C2CE" d="M93.617,178.459c0-39.13-0.001-78.26-0.001-117.391c2.323-1.672,4.501-3.533,6.968-5.017
		c8.778-5.283,18.238-7.25,28.416-6.255c6.237,0.61,12.305,1.749,17.998,4.46c10.525,5.011,16.859,13.582,19.775,24.556
		c6.484,24.406,2.854,47.404-10.708,68.711c-8.311,13.057-19.008,23.808-32.251,31.924c-1.762,1.08-3.643,1.971-5.501,2.886
		c-6.946,3.424-13.597,2.308-20.053-1.387C96.735,180.073,95.419,178.814,93.617,178.459z"/>
	<path opacity="0.6" fill="#FFFFFF" d="M95.613,171.37c0-35.047,0-70.095-0.001-105.142c2.097-1.497,4.064-3.164,6.291-4.494
		c7.926-4.731,16.467-6.493,25.657-5.602c5.632,0.546,11.11,1.567,16.251,3.994c9.503,4.488,15.222,12.165,17.854,21.994
		c5.855,21.859,2.577,42.458-9.668,61.542c-7.504,11.695-17.162,21.324-29.119,28.593c-1.591,0.967-3.29,1.765-4.966,2.585
		c-6.272,3.067-12.277,2.067-18.106-1.243C98.429,172.816,97.241,171.688,95.613,171.37z"/>
	<path fill="#A9C2CE" d="M102.512,41.843c0.489-5.642,1.325-10.774,3.252-15.721c3.294-8.453,9.717-13.187,18.138-15.58
		c3.875-1.101,7.871-1.585,11.891-1.872c1.206-0.086,1.762,0.12,1.664,1.52c-0.418,5.992-1.406,11.83-3.884,17.369
		c-2.769,6.188-7.383,10.306-13.627,12.79c-4.929,1.961-10.076,2.742-15.304,3.238C102.93,43.75,102.032,43.339,102.512,41.843z"/>
	<path fill="#A9C2CE" d="M98.66,48.131c0,3.744,0.023,7.488-0.008,11.232c-0.024,2.928-1.907,4.714-4.883,4.714
		c-2.992,0.001-4.871-1.77-4.88-4.699c-0.022-7.571-0.028-15.143,0.004-22.714c0.012-2.877,2.027-4.66,5.023-4.583
		c2.874,0.075,4.709,1.806,4.734,4.568C98.687,40.477,98.661,44.304,98.66,48.131z"/>
	<path fill="#A9C2CE" d="M105.375,125.773c-0.224-5.684-0.514-11.366-0.606-17.052c-0.015-0.934,0.751-1.938,1.308-2.813
		c2.307-3.619,6.153-5.072,9.61-3.701c3.087,1.225,5.054,5.582,3.909,9.55c-1.948,6.749-7.448,10.363-12.513,14.31
		C106.513,125.969,105.944,125.871,105.375,125.773z"/>
</g>
</svg>
