<?xml version="1.0" encoding="utf-8"?>
<!-- Generator: Adobe Illustrator 17.0.0, SVG Export Plug-In . SVG Version: 6.00 Build 0)  -->
<!DOCTYPE svg PUBLIC "-//W3C//DTD SVG 1.1//EN" "http://www.w3.org/Graphics/SVG/1.1/DTD/svg11.dtd">
<svg version="1.1" id="Capa_1" xmlns="http://www.w3.org/2000/svg" xmlns:xlink="http://www.w3.org/1999/xlink" x="0px" y="0px"
	 width="188px" height="189px" viewBox="0 0 188 189" enable-background="new 0 0 188 189" xml:space="preserve">
<g>
	<path fill="#A9C2CE" d="M127.831,26.495c0.407,1.969,0.644,3.96,1.237,5.839c2.748,8.705,8.999,13.538,17.663,15.478
		c3.786,0.848,7.657,1.314,11.462,2.085c8.483,1.717,14.307,6.426,16.259,15.121c1.76,7.837-2.24,17.229-9.397,22.039
		c-0.141-1.004-0.255-1.86-0.383-2.715c-1.458-9.674-8.471-16.793-18.583-18.783c-3.926-0.773-7.892-1.343-11.813-2.137
		c-8.731-1.769-14.645-7.819-16.005-16.244C117.081,39.804,121.467,30.254,127.831,26.495z"/>
	<path fill="#A9C2CE" d="M154.501,100.892c3.349,0,6.469,0,9.838,0c0,9.974,0,19.786,0,29.871c-3.333,0-6.537,0-9.838,0
		C154.501,120.709,154.501,110.902,154.501,100.892z"/>
	<path fill="#A9C2CE" d="M184.464,130.897c-3.381,0-6.408,0-9.689,0c0-9.941,0-19.757,0-29.89c3.127,0,6.312,0,9.689,0
		C184.464,110.912,184.464,120.736,184.464,130.897z"/>
	<rect x="3.536" y="100.554" fill="#A9C2CE" width="141.083" height="30.343"/>
</g>
</svg>
