<?xml version="1.0" encoding="utf-8"?>
<!-- Generator: Adobe Illustrator 17.0.0, SVG Export Plug-In . SVG Version: 6.00 Build 0)  -->
<!DOCTYPE svg PUBLIC "-//W3C//DTD SVG 1.1//EN" "http://www.w3.org/Graphics/SVG/1.1/DTD/svg11.dtd">
<svg version="1.1" id="Capa_1" xmlns="http://www.w3.org/2000/svg" xmlns:xlink="http://www.w3.org/1999/xlink" x="0px" y="0px"
	 width="188px" height="189px" viewBox="0 0 188 189" enable-background="new 0 0 188 189" xml:space="preserve">
<g>
	<g>
		<g>
			<path fill="#A9C2CE" d="M154.877,103.926c-0.002,23.209,0.002,46.417-0.004,69.626c-0.002,5.853-1.181,7.076-6.929,7.078
				c-35.811,0.015-71.622,0.018-107.434,0.014c-6.215-0.001-7.33-1.157-7.33-7.462c-0.003-46.541-0.004-93.082-0.004-139.624
				c0-6.059,1.033-7.096,7.255-7.108c11.105-0.022,22.211-0.068,33.315,0.04c2.647,0.026,3.645-0.635,3.75-3.528
				c0.347-9.623,7.342-16.557,16.306-16.595c9.27-0.039,16.363,6.812,16.725,16.548c0.106,2.839,1.013,3.597,3.718,3.569
				c11.104-0.117,22.21-0.061,33.315-0.037c6.223,0.013,7.317,1.149,7.318,7.479C154.881,57.26,154.879,80.593,154.877,103.926z
				 M93.819,26.448c0-0.005,0-0.009,0-0.014c2.12,0,4.248-0.115,6.359,0.029c2.706,0.184,3.464-1.182,3.455-3.6
				c-0.018-5.068-3.968-9.351-9.058-9.677c-4.837-0.31-9.463,3.439-10.096,8.181c-0.554,4.151,0.263,5.078,4.476,5.082
				C90.576,26.449,92.197,26.448,93.819,26.448z"/>
		</g>
	</g>
	<g opacity="0.6">
		<path fill="#FFFFFF" d="M54.164,57.987c26.411,0,52.822,0,79.234,0c0.011,0.539,0.023,1.078,0.034,1.616
			c-26.464,0-52.927,0-79.391,0C54.082,59.064,54.123,58.525,54.164,57.987z"/>
	</g>
	<g opacity="0.6">
		<path fill="#FFFFFF" d="M54.164,71.995c26.411,0,52.822,0,79.234,0c0.011,0.539,0.023,1.078,0.034,1.616
			c-26.464,0-52.927,0-79.391,0C54.082,73.072,54.123,72.534,54.164,71.995z"/>
	</g>
	<g opacity="0.6">
		<path fill="#FFFFFF" d="M54.164,86.003c26.411,0,52.822,0,79.234,0c0.011,0.539,0.023,1.078,0.034,1.616
			c-26.464,0-52.927,0-79.391,0C54.082,87.081,54.123,86.542,54.164,86.003z"/>
	</g>
	<g opacity="0.6">
		<path fill="#FFFFFF" d="M54.164,97.1c26.411,0,52.822,0,79.234,0c0.011,0.539,0.023,1.078,0.034,1.616
			c-26.464,0-52.927,0-79.391,0C54.082,98.178,54.123,97.639,54.164,97.1z"/>
	</g>
	<g opacity="0.6">
		<path fill="#FFFFFF" d="M54.164,108.668c26.411,0,52.822,0,79.234,0c0.011,0.539,0.023,1.078,0.034,1.616
			c-26.464,0-52.927,0-79.391,0C54.082,109.746,54.123,109.207,54.164,108.668z"/>
	</g>
	<g opacity="0.6">
		<path fill="#FFFFFF" d="M54.164,122.676c26.411,0,52.822,0,79.234,0c0.011,0.539,0.023,1.078,0.034,1.616
			c-26.464,0-52.927,0-79.391,0C54.082,123.754,54.123,123.215,54.164,122.676z"/>
	</g>
	<g opacity="0.6">
		<path fill="#FFFFFF" d="M54.164,136.685c26.411,0,52.822,0,79.234,0c0.011,0.539,0.023,1.078,0.034,1.616
			c-26.464,0-52.927,0-79.391,0C54.082,137.762,54.123,137.223,54.164,136.685z"/>
	</g>
	<g opacity="0.6">
		<path fill="#FFFFFF" d="M54.164,150.693c26.411,0,52.822,0,79.234,0c0.011,0.539,0.023,1.078,0.034,1.616
			c-26.464,0-52.927,0-79.391,0C54.082,151.77,54.123,151.232,54.164,150.693z"/>
	</g>
	<g opacity="0.6">
		<path fill="#FFFFFF" d="M147.194,173.138H40.115V33.835h107.079V173.138z M47.115,166.138h93.079V40.835H47.115V166.138z"/>
	</g>
</g>
</svg>
