<?xml version="1.0" encoding="utf-8"?>
<!-- Generator: Adobe Illustrator 17.0.0, SVG Export Plug-In . SVG Version: 6.00 Build 0)  -->
<!DOCTYPE svg PUBLIC "-//W3C//DTD SVG 1.1//EN" "http://www.w3.org/Graphics/SVG/1.1/DTD/svg11.dtd">
<svg version="1.1" id="Capa_1" xmlns="http://www.w3.org/2000/svg" xmlns:xlink="http://www.w3.org/1999/xlink" x="0px" y="0px"
	 width="188px" height="189px" viewBox="0 0 188 189" enable-background="new 0 0 188 189" xml:space="preserve">
<g>
	<g>
		<g>
			<path fill="#A9C2CE" d="M154.048,102.744c-0.002,22.466,0.002,44.931-0.004,67.397c-0.002,5.666-1.143,6.849-6.707,6.852
				c-34.665,0.014-69.33,0.018-103.994,0.014c-6.016-0.001-7.095-1.12-7.095-7.223c-0.003-45.051-0.004-90.103-0.004-135.154
				c0-5.865,1-6.869,7.023-6.881c10.75-0.021,21.5-0.066,32.249,0.039c2.562,0.025,3.528-0.615,3.629-3.415
				c0.336-9.314,7.107-16.027,15.784-16.063c8.973-0.037,15.839,6.594,16.189,16.019c0.102,2.748,0.98,3.482,3.599,3.455
				c10.748-0.114,21.499-0.059,32.249-0.036c6.024,0.013,7.082,1.112,7.083,7.239C154.053,57.571,154.05,80.158,154.048,102.744z
				 M94.945,27.745c0-0.005,0-0.009,0-0.014c2.052,0,4.112-0.111,6.155,0.028c2.619,0.178,3.353-1.145,3.345-3.485
				c-0.018-4.906-3.841-9.052-8.768-9.368c-4.682-0.3-9.16,3.329-9.772,7.919c-0.536,4.018,0.254,4.916,4.332,4.919
				C91.806,27.746,93.375,27.745,94.945,27.745z"/>
		</g>
	</g>
	<g opacity="0.6">
		<path fill="#FFFFFF" d="M146.725,169.852H42.849V34.784h103.876V169.852z M49.849,162.852h89.876V41.784H49.849V162.852z"/>
	</g>
	<g opacity="0.6">
		<path fill="#FFFFFF" d="M92.067,66.254c13.735,0,27.47,0,41.205,0c0.006,0.522,0.012,1.043,0.018,1.565
			c-13.762,0-27.524,0-41.287,0C92.025,67.297,92.046,66.775,92.067,66.254z"/>
	</g>
	<g opacity="0.6">
		<path fill="#FFFFFF" d="M92.067,79.813c13.735,0,27.47,0,41.205,0c0.006,0.522,0.012,1.043,0.018,1.565
			c-13.762,0-27.524,0-41.287,0C92.025,80.856,92.046,80.335,92.067,79.813z"/>
	</g>
	<g opacity="0.6">
		<path fill="#FFFFFF" d="M92.067,93.373c13.735,0,27.47,0,41.205,0c0.006,0.522,0.012,1.043,0.018,1.565
			c-13.762,0-27.524,0-41.287,0C92.025,94.416,92.046,93.895,92.067,93.373z"/>
	</g>
	<g opacity="0.6">
		<path fill="#FFFFFF" d="M92.067,106.536c13.735,0,27.47,0,41.205,0c0.006,0.522,0.012,1.043,0.018,1.565
			c-13.762,0-27.524,0-41.287,0C92.025,107.579,92.046,107.058,92.067,106.536z"/>
	</g>
	<g opacity="0.6">
		<path fill="#FFFFFF" d="M92.067,120.096c13.735,0,27.47,0,41.205,0c0.006,0.522,0.012,1.043,0.018,1.565
			c-13.762,0-27.524,0-41.287,0C92.025,121.139,92.046,120.617,92.067,120.096z"/>
	</g>
	<g opacity="0.6">
		<path fill="#FFFFFF" d="M92.067,133.656c13.735,0,27.47,0,41.205,0c0.006,0.522,0.012,1.043,0.018,1.565
			c-13.762,0-27.524,0-41.287,0C92.025,134.699,92.046,134.177,92.067,133.656z"/>
	</g>
	<g opacity="0.6">
		<path fill="#FFFFFF" d="M92.067,147.215c13.735,0,27.47,0,41.205,0c0.006,0.522,0.012,1.043,0.018,1.565
			c-13.762,0-27.524,0-41.287,0C92.025,148.258,92.046,147.737,92.067,147.215z"/>
	</g>
	<g>
		<g opacity="0.6">
			<path fill="#FFFFFF" d="M84.792,67.407c0.079,1.607-0.482,3.169-1.175,4.686c-1.643,3.596-4.033,6.686-6.719,9.537
				c-1.927,2.045-4.009,3.942-6.009,5.918c-0.345,0.341-0.602,0.355-0.969,0.022c-3.618-3.283-7.061-6.729-9.919-10.71
				c-1.407-1.96-2.654-4.022-3.434-6.327c-0.85-2.51-0.825-4.952,0.471-7.342c1.764-3.254,6.075-4.925,9.573-3.697
				c1.287,0.452,2.449,1.075,3.355,2.102c0.361,0.408,0.585,0.315,0.916-0.03c1.612-1.68,3.613-2.527,5.924-2.495
				C81.208,59.134,84.958,62.817,84.792,67.407z M69.558,82.8c0.032-0.001,0.064-0.003,0.096-0.004
				c0.687-3.907,1.375-7.814,2.062-11.721c0.065,0.005,0.129,0.011,0.194,0.016c0.397,2.422,0.794,4.843,1.192,7.265
				c0.175-0.08,0.225-0.161,0.264-0.246c0.456-0.993,0.926-1.981,1.356-2.985c0.174-0.406,0.436-0.527,0.849-0.511
				c0.607,0.024,1.216,0.002,1.824,0.008c0.326,0.003,0.545-0.076,0.544-0.472c0-0.398-0.221-0.467-0.547-0.465
				c-0.831,0.007-1.663,0.022-2.493-0.007c-0.461-0.016-0.71,0.157-0.845,0.596c-0.083,0.27-0.257,0.513-0.389,0.767
				c-0.045-0.011-0.09-0.022-0.135-0.034c-0.541-3.289-1.083-6.578-1.624-9.867c-0.035,0.004-0.071,0.008-0.106,0.011
				c-0.738,4.14-1.477,8.28-2.215,12.42c-0.051-0.003-0.103-0.007-0.154-0.01c-0.589-2.7-1.177-5.4-1.807-8.289
				c-0.161,0.359-0.257,0.546-0.331,0.742c-0.412,1.099-0.839,2.194-1.22,3.305c-0.176,0.514-0.44,0.772-1.012,0.721
				c-0.503-0.044-1.013-0.005-1.519-0.009c-0.347-0.003-0.654,0.009-0.647,0.495c0.007,0.499,0.343,0.467,0.673,0.468
				c0.709,0.001,1.422-0.041,2.127,0.014c0.601,0.047,0.894-0.202,1.054-0.743c0.137-0.464,0.322-0.914,0.486-1.37
				c0.063,0.011,0.126,0.022,0.189,0.033C68.135,76.22,68.846,79.51,69.558,82.8z"/>
		</g>
		<g>
			<path fill="#A9C2CE" d="M69.558,82.8c-0.712-3.29-1.423-6.581-2.135-9.871c-0.063-0.011-0.126-0.022-0.189-0.033
				c-0.164,0.456-0.349,0.906-0.486,1.37c-0.16,0.542-0.453,0.79-1.054,0.743c-0.705-0.055-6.443-0.012-7.153-0.014
				c-0.33-0.001-0.666,0.031-0.673-0.468c-0.007-0.486,0.299-0.498,0.647-0.495c0.507,0.004,6.042-0.036,6.545,0.009
				c0.573,0.051,0.836-0.207,1.012-0.721c0.381-1.111,0.807-2.205,1.22-3.305c0.074-0.196,0.17-0.384,0.331-0.742
				c0.63,2.889,1.218,5.589,1.807,8.289c0.051,0.003,0.103,0.007,0.154,0.01c0.738-4.14,1.477-8.28,2.215-12.42
				c0.035-0.004,0.071-0.008,0.106-0.011c0.541,3.289,1.083,6.578,1.624,9.867c0.045,0.011,0.09,0.022,0.135,0.034
				c0.133-0.255,0.306-0.497,0.389-0.767c0.135-0.438,0.384-0.611,0.845-0.596c0.83,0.028,6.816,0.013,7.647,0.007
				c0.326-0.003,0.547,0.066,0.547,0.465c0,0.395-0.218,0.475-0.544,0.472c-0.608-0.005-6.371,0.016-6.978-0.008
				c-0.413-0.016-0.675,0.104-0.849,0.511c-0.43,1.005-0.901,1.992-1.356,2.985c-0.039,0.086-0.089,0.166-0.264,0.246
				c-0.397-2.422-0.794-4.843-1.192-7.265c-0.065-0.005-0.129-0.011-0.194-0.016c-0.687,3.907-1.375,7.814-2.062,11.721
				C69.622,82.798,69.59,82.799,69.558,82.8z"/>
		</g>
	</g>
	<g opacity="0.6">
		<path fill="#FFFFFF" d="M70.149,109.148c-3.891-2.989-6.382-4.901-8.872-6.813c0.323-0.708,0.646-1.416,0.97-2.125
			c2.936,1.057,4.217,1.814,6.904,2.817c2.196-2.9,5.087-7.213,7.558-10.247c0.795,0.5,1.589,0.999,2.384,1.499
			C76.363,98.818,73.633,103.356,70.149,109.148z"/>
	</g>
	<g opacity="0.6">
		<path fill="#FFFFFF" d="M70.149,130.5c-3.891-2.989-6.382-4.901-8.872-6.813c0.323-0.708,0.646-1.416,0.97-2.125
			c2.936,1.057,4.217,1.814,6.904,2.817c2.196-2.9,5.087-7.213,7.558-10.247c0.795,0.5,1.589,0.999,2.384,1.499
			C76.363,120.17,73.633,124.708,70.149,130.5z"/>
	</g>
	<g opacity="0.6">
		<path fill="#FFFFFF" d="M70.149,152.302c-3.891-2.989-6.382-4.901-8.872-6.813c0.323-0.708,0.646-1.416,0.97-2.125
			c2.936,1.057,4.217,1.814,6.904,2.817c2.196-2.9,5.087-7.213,7.558-10.247c0.795,0.5,1.589,0.999,2.384,1.499
			C76.363,141.972,73.633,146.51,70.149,152.302z"/>
	</g>
</g>
</svg>
