<?xml version="1.0" encoding="utf-8"?>
<!-- Generator: Adobe Illustrator 17.0.0, SVG Export Plug-In . SVG Version: 6.00 Build 0)  -->
<!DOCTYPE svg PUBLIC "-//W3C//DTD SVG 1.1//EN" "http://www.w3.org/Graphics/SVG/1.1/DTD/svg11.dtd">
<svg version="1.1" id="Capa_1" xmlns="http://www.w3.org/2000/svg" xmlns:xlink="http://www.w3.org/1999/xlink" x="0px" y="0px"
	 width="312px" height="408px" viewBox="-62 -109.5 312 408" enable-background="new -62 -109.5 312 408" xml:space="preserve">
<g>
	<g>
		<path fill="#A8C2CE" d="M157.372,251.535c-28.033,9.341-55.489,11.658-83.012,7.514c-18.721-2.819-14.689-20.732-17.576-33.432
			c-2.398-10.548,0.762-17.91,12.407-21.06c7.387-1.998,14.424-5.699,21.229-9.36c15.075-8.11,17.669-12.881,20.563-34.84
			c24.186-1.655,42.522-22.288,40.248-46.906c-9.355,20.05-17.251,40.297-43.049,41.728c-2.297,22.675-16.754,34.521-35.978,41.82
			c-7.728,2.934-15.764,5.299-23.854,7c-33.871,7.122-34.496,6.561-39.78-27.064c-1.059-6.739-2.617-13.4-3.626-20.145
			c-1.016-6.792-1.635-13.643-2.576-21.733c-2.308-0.954-5.955-2.132-9.29-3.901c-9.833-5.215-13.084-11.681-3.533-20.436
			c6.122-5.612,12.197-11.3,17.935-17.297c2.606-2.724,6.627-6.724,6.108-9.386c-3.798-19.49,10.313-31.861,17.57-46.908
			c2.632-5.458,6.638-10.502,8.111-16.225c5.405-21,9.659-25.323,30.916-26.446c31.95-1.688,62.98,2.6,92.519,15.576
			c18.945,8.322,31.142,21.756,35.991,42.508c10.551,45.148,8.132,86.365-27.514,121.508
			c-16.191,15.963-19.822,37.835-16.632,60.372C155.308,239.78,156.304,245.104,157.372,251.535z"/>
		<g>
			<path fill="#FE0100" d="M220.97-41.8c2.233,9.261,3.309,13.726,4.636,19.23c5.835-4.234,10.559-7.662,15.282-11.089
				c1.138,0.873,2.277,1.747,3.415,2.62c-8.951,12.314-17.902,24.628-29.033,39.942c-1.094-9.261-1.707-14.451-2.567-21.732
				c-6.828,4.802-12.711,8.938-18.593,13.075c-0.79-0.658-1.581-1.316-2.371-1.974C200.658-13.955,209.577-26.182,220.97-41.8z"/>
		</g>
		<g>
			<path fill="#FE0100" d="M-7.974-11.753c-9.427,1.193-14.559,1.843-21.345,2.702c4.006,6.162,7.11,10.937,10.214,15.711
				c-0.805,0.981-1.609,1.962-2.414,2.943C-32.507,1.689-43.495-6.226-56.303-15.452c6.744-2.909,11.305-4.876,16.627-7.172
				c-4.945-6.567-9.386-12.464-13.826-18.362c0.69-0.821,1.38-1.641,2.07-2.462C-38.193-33.792-24.954-24.136-7.974-11.753z"/>
		</g>
		<g>
			<path fill="#FE0100" d="M90.836-60.936c-1.674,7.875-3.083,14.504-4.492,21.133c-0.797-0.004-1.594-0.008-2.391-0.011
				c-2.165-14.417-4.329-28.834-6.828-45.479c6.297,3.091,10.414,5.111,16.157,7.931c1.153-9.732,2.149-18.144,3.146-26.556
				c0.783-0.022,1.565-0.044,2.348-0.066c2.663,17.046,5.327,34.091,8.622,55.186C99.734-54.415,95.66-57.401,90.836-60.936z"/>
		</g>
	</g>
</g>
</svg>
