<?xml version="1.0" encoding="utf-8"?>
<!-- Generator: Adobe Illustrator 17.0.0, SVG Export Plug-In . SVG Version: 6.00 Build 0)  -->
<!DOCTYPE svg PUBLIC "-//W3C//DTD SVG 1.1//EN" "http://www.w3.org/Graphics/SVG/1.1/DTD/svg11.dtd">
<svg version="1.1" id="Capa_1" xmlns="http://www.w3.org/2000/svg" xmlns:xlink="http://www.w3.org/1999/xlink" x="0px" y="0px"
	 width="312px" height="408px" viewBox="-62 -109.5 312 408" enable-background="new -62 -109.5 312 408" xml:space="preserve">
<g opacity="0.4">
	<path fill="#A8C2CE" d="M149.688,72.651c-5.584,4.2-9.688,6.871-13.233,10.146c-1.546,1.429-2.592,4.051-2.745,6.21
		c-0.397,5.611,0.063,11.279-0.26,16.9c-0.374,6.513-4.869,10.794-10.723,10.797c-5.924,0.003-10.476-4.231-10.698-10.754
		c-0.299-8.814-0.58-17.689,0.168-26.45c0.29-3.398,2.615-7.653,5.369-9.637c14.902-10.74,30.284-20.81,45.381-31.283
		c6.494-4.505,12.871-4.347,19.14-0.098c6.58,4.46,10.061,10.715,8.721,18.853c-3.659,22.237-7.614,44.426-11.073,66.694
		c-0.555,3.574-0.017,7.839,1.47,11.128c13.403,29.656,27.217,59.125,40.71,88.741c4.114,9.031,1.969,16.254-5.074,19.524
		c-7.172,3.33-13.874,0.358-18.273-8.483c-15.471-31.095-30.941-62.191-46.117-93.43c-1.841-3.79-2.577-8.442-2.644-12.713
		C149.525,110.722,149.688,92.641,149.688,72.651z"/>
	<path fill="#A8C2CE" d="M218.408,1.776c0.119,15.964-12.841,29.152-28.7,29.204c-15.866,0.053-28.918-13.041-28.902-28.994
		c0.015-15.712,12.581-28.455,28.315-28.712C205.111-26.989,218.289-14.165,218.408,1.776z"/>
	<path fill="#A8C2CE" d="M151.818,159.929c5.21,10.481,9.572,18.444,13.049,26.775c0.962,2.305,0.286,6.547-1.336,8.467
		c-9.144,10.83-27.272,34.643-37.129,44.826c-5.477,5.658-12.418,5.143-17.595-0.037c-5.227-5.23-4.976-12.308-0.138-18.265
		C120.771,206.795,144.876,181.168,151.818,159.929z"/>
	<path fill="#A8C2CE" d="M185.662,41.32c5.062,7.159,22.724,33.656,27.288,40.11c5.459,6.952,9.584,12.087,14.97,17.494
		c2.605,3.326,8.28,6.039,12.542,10.675c3.608,3.923,0.336,6.239-5.047,9.132c-7.02,2.846-11.42-2.115-21.216-8.402
		c-10.61-7.974-34.802-32.621-34.393-42.052c0.136-3.137,1.131-6.245,1.82-9.347C182.825,53.531,184.093,48.146,185.662,41.32z"/>
</g>
<g opacity="0.54">
	<path fill="#A8C2CE" d="M69.4,72.651c-5.584,4.2-9.688,6.871-13.233,10.146c-1.546,1.429-2.592,4.051-2.745,6.21
		c-0.397,5.611,0.063,11.279-0.26,16.9c-0.374,6.513-4.869,10.794-10.723,10.797c-5.924,0.003-10.476-4.231-10.698-10.754
		c-0.299-8.814-0.58-17.689,0.168-26.45c0.29-3.398,2.615-7.653,5.369-9.637C52.18,59.123,67.563,49.053,82.66,38.58
		c6.494-4.505,12.871-4.347,19.14-0.098c6.58,4.46,10.061,10.715,8.721,18.853c-3.659,22.237-7.614,44.426-11.073,66.694
		c-0.555,3.574-0.017,7.839,1.47,11.128c13.403,29.656,27.217,59.125,40.71,88.741c4.114,9.031,1.969,16.254-5.074,19.524
		c-7.172,3.33-13.874,0.358-18.273-8.483c-15.471-31.095-30.941-62.191-46.117-93.43c-1.841-3.79-2.577-8.442-2.644-12.713
		C69.237,110.722,69.4,92.641,69.4,72.651z"/>
	<path fill="#A8C2CE" d="M138.12,1.776c0.119,15.964-12.841,29.152-28.7,29.204C93.553,31.033,80.502,17.939,80.517,1.986
		c0.015-15.712,12.581-28.455,28.315-28.712C124.823-26.989,138.001-14.165,138.12,1.776z"/>
	<path fill="#A8C2CE" d="M71.53,159.929c5.21,10.481,9.572,18.444,13.049,26.775c0.962,2.305,0.286,6.547-1.336,8.467
		c-9.144,10.83-27.272,34.643-37.129,44.826c-5.477,5.658-12.418,5.143-17.595-0.037c-5.227-5.23-4.976-12.308-0.138-18.265
		C40.483,206.795,64.588,181.168,71.53,159.929z"/>
	<path fill="#A8C2CE" d="M105.374,41.32c5.062,7.159,22.724,33.656,27.288,40.11c5.459,6.952,9.584,12.087,14.97,17.494
		c2.605,3.326,8.28,6.039,12.542,10.675c3.608,3.923,0.336,6.239-5.047,9.132c-7.02,2.846-11.42-2.115-21.216-8.402
		c-10.61-7.974-34.802-32.621-34.393-42.052c0.136-3.137,1.131-6.245,1.82-9.347C102.538,53.531,103.805,48.146,105.374,41.32z"/>
</g>
<g>
	<path fill="#A8C2CE" d="M-10.887,72.651c-5.584,4.2-9.688,6.871-13.233,10.146c-1.546,1.429-2.592,4.051-2.745,6.21
		c-0.397,5.611,0.063,11.279-0.26,16.9c-0.374,6.513-4.869,10.794-10.723,10.797c-5.924,0.003-10.476-4.231-10.698-10.754
		c-0.299-8.814-0.58-17.689,0.168-26.45c0.29-3.398,2.615-7.653,5.369-9.637c14.902-10.74,30.284-20.81,45.381-31.283
		c6.494-4.505,12.871-4.347,19.14-0.098c6.58,4.46,10.061,10.715,8.721,18.853c-3.659,22.237-7.614,44.426-11.073,66.694
		c-0.555,3.574-0.017,7.839,1.47,11.128c13.403,29.656,27.217,59.125,40.71,88.741c4.114,9.031,1.969,16.254-5.074,19.524
		c-7.172,3.33-13.874,0.358-18.273-8.483c-15.471-31.095-30.941-62.191-46.117-93.43c-1.841-3.79-2.577-8.442-2.644-12.713
		C-11.05,110.722-10.887,92.641-10.887,72.651z"/>
	<path fill="#A8C2CE" d="M57.832,1.776c0.119,15.964-12.841,29.152-28.7,29.204C13.266,31.033,0.214,17.939,0.229,1.986
		c0.015-15.712,12.581-28.455,28.315-28.712C44.536-26.989,57.713-14.165,57.832,1.776z"/>
	<path fill="#A8C2CE" d="M-8.758,159.929c5.21,10.481,9.572,18.444,13.049,26.775c0.962,2.305,0.286,6.547-1.336,8.467
		c-9.144,10.83-27.272,34.643-37.129,44.826c-5.477,5.658-12.418,5.143-17.595-0.037c-5.227-5.23-4.976-12.308-0.138-18.265
		C-39.804,206.795-15.7,181.168-8.758,159.929z"/>
	<path fill="#A8C2CE" d="M25.086,41.32c5.062,7.159,22.724,33.656,27.288,40.11c5.459,6.952,9.584,12.087,14.97,17.494
		c2.605,3.326,8.28,6.039,12.542,10.675c3.608,3.923,0.336,6.239-5.047,9.132c-7.02,2.846-11.42-2.115-21.216-8.402
		c-10.61-7.974-34.802-32.621-34.393-42.052c0.136-3.137,1.131-6.245,1.82-9.347C22.25,53.531,23.518,48.146,25.086,41.32z"/>
</g>
</svg>
