<?xml version="1.0" encoding="utf-8"?>
<!-- Generator: Adobe Illustrator 17.0.0, SVG Export Plug-In . SVG Version: 6.00 Build 0)  -->
<!DOCTYPE svg PUBLIC "-//W3C//DTD SVG 1.1//EN" "http://www.w3.org/Graphics/SVG/1.1/DTD/svg11.dtd">
<svg version="1.1" id="Capa_1" xmlns="http://www.w3.org/2000/svg" xmlns:xlink="http://www.w3.org/1999/xlink" x="0px" y="0px"
	 width="312px" height="408px" viewBox="-62 -109.5 312 408" enable-background="new -62 -109.5 312 408" xml:space="preserve">
<g>
	<g>
		<path fill="#A8C2CE" d="M175.025,263.547c-33.372,11.12-66.059,13.878-98.824,8.945c-22.287-3.356-17.487-24.681-20.923-39.8
			c-2.854-12.557,0.907-21.321,14.771-25.071c8.794-2.379,17.172-6.785,25.273-11.143c17.946-9.655,21.034-15.335,24.479-41.477
			c28.793-1.971,50.622-26.534,47.914-55.841c-11.137,23.869-20.537,47.973-51.249,49.676
			c-2.735,26.994-19.945,41.096-42.831,49.786c-9.2,3.493-18.767,6.308-28.398,8.333c-40.323,8.479-41.067,7.81-47.358-32.219
			c-1.261-8.022-3.116-15.953-4.317-23.983c-1.21-8.085-1.947-16.241-3.066-25.873c-2.748-1.135-7.09-2.539-11.059-4.644
			c-11.705-6.209-15.576-13.906-4.206-24.329c7.288-6.681,14.521-13.452,21.351-20.591c3.102-3.242,7.889-8.005,7.272-11.174
			C-0.668,40.942,16.131,26.215,24.77,8.301c3.133-6.497,7.902-12.502,9.656-19.316c6.434-25,11.499-30.146,36.805-31.483
			c38.035-2.01,74.977,3.095,110.142,18.543c22.553,9.907,37.073,25.901,42.846,50.605c12.56,53.748,9.681,102.815-32.755,144.653
			c-19.275,19.004-23.598,45.041-19.799,71.871C172.568,249.552,173.754,255.891,175.025,263.547z"/>
	</g>
	<path fill="#FFFFFF" d="M69.919,57.242c0.031,13.484-11.441,25.061-24.952,25.181C31.582,82.543,19.87,70.996,19.712,57.525
		c-0.158-13.548,11.467-25.265,25.16-25.358C58.195,32.077,69.888,43.783,69.919,57.242z M45.784,33.53
		c-0.164-0.283-3.951,0.872-4.115,0.589c-3.052,1.614-6.328,2.913-9.114,4.9c-8.117,5.791-11.249,17.619-7.327,26.55
		c4.058,9.241,13.17,14.017,22.961,12.035c10.848-2.195,17.06-14.181,12.474-24.065c-2.543-5.481-8.641-9.031-14.598-8.498
		c-5.301,0.474-9.717,4.367-11.071,9.76c-0.922,3.67,0.819,8.315,3.958,10.289c3.011,1.894,6.148,2.385,9.24,0.213
		c3.196-2.245,3.342-6.978,0.348-8.611c-1.537-0.838-3.025-0.568-2.645,1.282c0.427,2.076,1.003,3.642-1.84,3.877
		c-2.639,0.219-4.063-1.212-4.698-3.636c-0.853-3.259,0.669-6.565,3.838-8.303c5.105-2.8,12.186-0.219,14.687,5.571
		c2.096,4.852,1.523,9.592-1.716,13.807c-3.703,4.819-8.729,7.251-14.739,6.236c-13.451-2.27-20.22-15.929-14.233-28.202
		C30.297,40.96,39.053,35.578,45.784,33.53z"/>
	<path fill="none" stroke="#A8C2CE" stroke-width="3" stroke-miterlimit="10" d="M49.382,32.203
		c-6.731,2.049-19.085,9.23-22.189,15.593c-5.987,12.274,0.782,25.932,14.233,28.202c6.01,1.014,11.036-1.417,14.739-6.236
		c3.239-4.215,3.811-8.954,1.716-13.807c-2.501-5.79-9.582-8.372-14.687-5.571c-3.169,1.739-4.691,5.044-3.838,8.303
		c0.635,2.425,2.059,3.855,4.698,3.636c2.843-0.235,2.267-1.801,1.84-3.877c-0.381-1.849,1.108-2.12,2.645-1.282
		c2.994,1.633,2.847,6.366-0.348,8.611c-3.092,2.172-6.229,1.681-9.24-0.213c-3.139-1.975-4.88-6.619-3.958-10.289
		c1.354-5.393,5.771-9.286,11.071-9.76c5.957-0.533,12.055,3.017,14.598,8.498c4.586,9.884-1.626,21.87-12.474,24.065
		c-9.792,1.982-18.903-2.794-22.961-12.035c-3.922-8.931-0.79-20.759,7.327-26.55c2.785-1.987,8.228-4.775,11.28-6.388
		C43.999,33.385,49.218,31.92,49.382,32.203z"/>
	<path fill="#FE0100" d="M-38.016-27.361c-1.6,6.702-2.624,10.988-3.647,15.274c-1.387-0.097-2.773-0.194-4.16-0.291
		c0.228-8.609,0.457-17.218,0.728-27.473c10.037,0.323,18.799,0.606,27.56,0.888c0.042,1.374,0.085,2.749,0.127,4.123
		c-4.261,0.785-8.522,1.571-15.48,2.854C-17.936-15.542-3.875-0.078,10.186,15.385c-1.212,1.188-2.424,2.377-3.636,3.565
		C-7.772,4.068-22.093-10.815-38.016-27.361z"/>
	<path fill="#FE0100" d="M-38.027,15.072c0.07,4.123,0.115,6.76,0.16,9.397c-0.818,0.15-1.636,0.3-2.454,0.451
		c-1.149-5.024-2.299-10.049-3.668-16.033c5.866-1.307,10.987-2.448,16.107-3.588c0.229,0.79,0.458,1.581,0.687,2.371
		c-2.353,1.09-4.706,2.179-8.548,3.959c11.115,7.305,21.567,14.175,32.02,21.046c-0.526,0.869-1.051,1.739-1.577,2.608
		C-15.817,28.787-26.334,22.292-38.027,15.072z"/>
</g>
</svg>
