<?xml version="1.0" encoding="utf-8"?>
<!-- Generator: Adobe Illustrator 17.0.0, SVG Export Plug-In . SVG Version: 6.00 Build 0)  -->
<!DOCTYPE svg PUBLIC "-//W3C//DTD SVG 1.1//EN" "http://www.w3.org/Graphics/SVG/1.1/DTD/svg11.dtd">
<svg version="1.1" id="Capa_1" xmlns="http://www.w3.org/2000/svg" xmlns:xlink="http://www.w3.org/1999/xlink" x="0px" y="0px"
	 width="312px" height="408px" viewBox="-62 -109.5 312 408" enable-background="new -62 -109.5 312 408" xml:space="preserve">
<path fill="#A9C2CE" d="M92.009,223.066c14.634,6.556,10.565,16.704,9.23,27.389c-1.427,11.414-2.912,23.019-18.237,22.213
	c-23.52-1.238-47.027-2.983-70.474-5.211c-13.13-1.248-16.888-8.328-13.575-21.748c5.785-23.429,4.755-47.962-13.192-65.204
	c-41.373-39.748-44.463-86.669-28.474-136.858C-38.438,30.229-27.73,15.603-15.82,8.484c36.572-21.862,77.694-26.828,119.544-20.813
	c7.786,1.119,17.053,8.424,21.138,15.479c9.44,16.304,16.428,34.076,23.766,51.523c2.848,6.773,3.969,14.274,5.859,21.448
	c1.533,5.819,1.694,12.558,4.879,17.248c4.557,6.712,11.135,12.126,17.179,17.739c8.725,8.104,7.784,14.507-2.068,21.019
	c-3.982,2.632-10.091,8.646-9.253,10.872c4.616,12.269-2.814,16.003-11.553,19.358c-10.092,3.874-14.209,11.691-5.433,18.378
	c15.518,11.825,8.689,22.554,2.424,35.047c-7.363,14.683-18.602,20.707-33.473,13.853c-27.206-12.537-53.598-26.604-65.403-57.392
	C52.47,199.078,70.304,213.343,92.009,223.066z M6.513,114.746c-4.504,25.924,20.468,51.998,45.438,45.321
	C25.154,155.206,15.467,135.842,6.513,114.746z"/>
<g>
	<g>
		<g>
			<path fill="#FE0100" d="M158.709-25.226c5.934,5.446,11.971,10.986,17.988,16.508c4.351-3.846,7.74-7.545,11.789-10.257
				c6.182-4.141,12.585-3.646,17.586,2.088c5.303,6.079,2.525,11.482-2.569,16.169c-3.881,3.571-7.814,7.09-11.826,10.514
				c-9.98,8.515-10.88,19.222-8.267,30.888c10.091,0,19.543,0,29.835,0c-3.037-11.914,4.238-17.941,11.813-23.748
				c13.061-10.01,17.37-22.984,12.908-38.726c-4.421-15.599-15.035-24.422-30.831-27.379
				C189.512-52.468,170.23-43.173,158.709-25.226z"/>
		</g>
		<g>
			<path fill="#FE0100" d="M214.815,67.609c0.107-9.931-7.349-17.775-17.224-18.12c-9.729-0.34-17.827,7.34-18.113,17.18
				c-0.302,10.372,7.532,18.635,17.656,18.623C206.898,85.282,214.708,77.47,214.815,67.609z"/>
		</g>
	</g>
</g>
<g>
	<path fill="#A9C2CE" d="M176.085,173.994c9.255,3.095,18.51,6.191,27.764,9.286c-0.513,1.693-1.027,3.386-1.54,5.079
		c-9.305-2.925-18.611-5.85-27.916-8.775C174.957,177.721,175.521,175.858,176.085,173.994z"/>
	<path fill="#A9C2CE" d="M170.562,183.281c7.665,6.892,15.33,13.783,22.995,20.675c-1.096,1.222-2.192,2.444-3.288,3.666
		c-8.007-6.984-16.014-13.968-24.022-20.951C167.686,185.541,169.124,184.411,170.562,183.281z"/>
	<path fill="#A9C2CE" d="M179.543,162.869c8.888-0.861,17.776-1.721,26.664-2.582c0.165,1.606,0.33,3.211,0.496,4.817
		c-8.928,0.99-17.857,1.981-26.785,2.971C179.793,166.339,179.668,164.604,179.543,162.869z"/>
</g>
</svg>
