<?xml version="1.0" encoding="utf-8"?>
<!-- Generator: Adobe Illustrator 17.0.0, SVG Export Plug-In . SVG Version: 6.00 Build 0)  -->
<!DOCTYPE svg PUBLIC "-//W3C//DTD SVG 1.1//EN" "http://www.w3.org/Graphics/SVG/1.1/DTD/svg11.dtd">
<svg version="1.1" id="Capa_1" xmlns="http://www.w3.org/2000/svg" xmlns:xlink="http://www.w3.org/1999/xlink" x="0px" y="0px"
	 width="312px" height="408px" viewBox="-62 -109.5 312 408" enable-background="new -62 -109.5 312 408" xml:space="preserve">
<g>
	<path fill="#A8C2CE" d="M138.098,73.326c0,3.64,0,7.28,0,10.92c-0.001,56.614,0.009,113.228-0.027,169.842
		c-0.003,4.424,0.275,8.977-0.63,13.246c-1.929,9.095-8.002,14.246-17.309,14.415c-9.304,0.168-15.507-4.786-17.869-13.761
		c-0.934-3.549-0.767-7.439-0.772-11.175c-0.059-42.972-0.055-85.944-0.068-128.916c-0.001-3.697,0-7.393,0-11.584
		c-4.095,0-7.356,0-11.748,0c-1.25,28.947-2.457,57.829-3.781,86.705c-0.249,5.422-0.315,10.985-1.615,16.196
		c-2.007,8.045-7.505,13.458-16.115,12.909c-8.495-0.542-13.054-6.551-14.978-14.564c-0.237-0.987-0.325-2.025-0.361-3.044
		c-1.369-38.51-2.73-77.02-4.046-115.532c-0.032-0.951,0.452-1.919,0.963-3.933c6.839,2.598,13.399,5.231,20.057,7.59
		c17.084,6.054,33.583-1.149,39.38-17.072c5.655-15.531-1.865-31.174-18.371-37.989c-5.98-2.469-12.369-4.118-18.031-7.151
		c-9.889-5.298-16.508-2.687-21.329,7.552c10.791,4.168,21.58,8.243,32.297,12.5c10.578,4.203,14.943,11.983,11.651,20.361
		c-3.39,8.627-11.539,11.467-22.302,7.422c-17.539-6.592-35.075-13.2-52.476-20.144c-13.783-5.5-16.125-16.422-5.761-27.192
		C28.334,26.921,41.836,12.9,56.084-0.297c4.109-3.806,10.71-6.367,16.364-6.772c13.572-0.972,27.261-0.354,40.902-0.327
		c9.737,0.02,17.113,4.456,21.823,12.788c13.585,24.032,27.025,48.145,40.35,72.322c4.06,7.367,4.235,14.996-3.574,19.807
		c-7.987,4.921-14.37,0.542-19.177-6.1c-4.361-6.026-8.306-12.353-12.434-18.548C139.592,73.023,138.845,73.174,138.098,73.326z"/>
	<path fill="#A8C2CE" d="M94.305-95.077c20.878,0.445,39.308,18.432,39.165,38.222c-0.175,24.277-18.488,42.731-41.669,41.992
		c-21.225-0.676-38.969-19.48-38.635-40.94C53.513-77.953,71.948-95.553,94.305-95.077z"/>
	<path opacity="0.6" fill="#FFFFFF" d="M97.072-15.028c-1.724,0.165-3.483,0.222-5.27,0.165
		c-21.225-0.676-38.969-19.48-38.635-40.94c0.339-21.72,18.071-39.065,39.84-39.281"/>
	<g opacity="0.6">
		<path opacity="0.6" fill="#FFFFFF" d="M98.357,116.313c-2.805,0-5.435,0-8.683,0c-1.25,28.947-2.457,57.829-3.781,86.705
			c-0.249,5.422-0.315,10.985-1.615,16.196c-2.007,8.045-7.505,13.458-16.115,12.909c-8.495-0.542-13.054-6.551-14.978-14.564
			c-0.237-0.987-0.325-2.025-0.361-3.044c-1.369-38.51-2.73-77.02-4.046-115.532c-0.032-0.951,0.452-1.919,0.963-3.933
			c6.839,2.598,13.399,5.231,20.057,7.59c17.084,6.054,33.583-1.149,39.38-17.072c5.655-15.531-1.865-31.174-18.371-37.989
			c-5.98-2.469-12.369-4.118-18.031-7.151c-9.889-5.298-16.508-2.687-21.329,7.552c10.791,4.168,21.58,8.243,32.297,12.5
			c10.578,4.203,14.943,11.983,11.651,20.361c-3.39,8.627-11.539,11.467-22.302,7.422c-17.539-6.592-35.075-13.2-52.476-20.144
			c-13.783-5.5-16.125-16.422-5.761-27.192C28.334,26.921,41.836,12.9,56.084-0.297c4.109-3.806,10.71-6.367,16.364-6.772
			c6.109-0.438,12.242-0.553,18.384-0.545c2.08,0.003,4.161,0.019,6.242,0.043"/>
	</g>
</g>
</svg>
